<svg xmlns="http://www.w3.org/2000/svg" viewBox="0 0 160 120">
  <!-- Chassis -->
  <rect x="10" y="88" width="140" height="7" rx="1" fill="#2a2a2a"/>
  <!-- Body -->
  <rect x="18" y="35" width="124" height="53" rx="2" fill="#c8a878" stroke="#8a7050" stroke-width="2"/>
  <!-- Roof -->
  <rect x="16" y="30" width="128" height="9" rx="2" fill="#8a7050" stroke="#6a5030" stroke-width="1.5"/>
  <!-- Centre door -->
  <rect x="52" y="40" width="56" height="46" rx="1" fill="#b89868" stroke="#8a7050" stroke-width="1.5"/>
  <line x1="80" y1="40" x2="80" y2="86" stroke="#8a7050" stroke-width="1"/>
  <circle cx="70" cy="63" r="3" fill="#6a5030"/>
  <circle cx="90" cy="63" r="3" fill="#6a5030"/>
  <!-- Body panels -->
  <rect x="20" y="38" width="30" height="48" rx="1" fill="#c8a878" stroke="#8a7050" stroke-width="1"/>
  <rect x="110" y="38" width="30" height="48" rx="1" fill="#c8a878" stroke="#8a7050" stroke-width="1"/>
  <!-- Wheels -->
  <circle cx="38" cy="100" r="9" fill="#1a1a1a" stroke="#444" stroke-width="2"/>
  <circle cx="38" cy="100" r="4" fill="#444"/>
  <circle cx="122" cy="100" r="9" fill="#1a1a1a" stroke="#444" stroke-width="2"/>
  <circle cx="122" cy="100" r="4" fill="#444"/>
  <!-- Buffers -->
  <rect x="4" y="90" width="7" height="5" rx="1" fill="#666"/>
  <rect x="149" y="90" width="7" height="5" rx="1" fill="#666"/>
</svg>
